<svg version="1.1" xmlns="http://www.w3.org/2000/svg" xmlns:xlink="http://www.w3.org/1999/xlink" width="420.21394" height="311.48439" viewBox="0,0,420.21394,311.48439"><g transform="translate(-117.42454,-17.09516)"><g stroke-miterlimit="10"><path d="M233.53429,319.28814v-272.9165h279.7499v272.9165z" fill="#ffd9d9" stroke="none" stroke-width="0" stroke-linecap="butt"/><path d="M500.66481,322.57954h-361.33246c-8.77227,0 -15.90775,-7.13243 -15.90775,-15.91084v-267.66579c0,-8.7692 7.1355,-15.90775 15.90775,-15.90775h361.33553c8.77227,0 15.90776,7.1386 15.90776,15.90775v267.6658c0,8.77841 -7.1386,15.91084 -15.91086,15.91084z" fill="none" stroke="#ffd9d9" stroke-width="12" stroke-linecap="butt"/><path d="M139.3323,322.57954c-8.77227,0 -15.90775,-6.4997 -15.90775,-14.49936v-243.92059c0,-7.99127 7.1355,-14.49654 15.90775,-14.49654h90.44717l-0.0031,272.9165z" fill="#ffd9d9" stroke="#ffd9d9" stroke-width="12" stroke-linecap="butt"/><path d="M123.42454,46.37163v-7.36872c0,-8.7692 7.1355,-15.90775 15.90775,-15.90775h361.33553c8.77227,0 15.90776,7.1386 15.90776,15.90775v7.36873z" fill="#ffd9d9" stroke="#ffd9d9" stroke-width="12" stroke-linecap="butt"/><text transform="translate(131.73603,40.37164) scale(0.5,0.5)" font-size="40" xml:space="preserve" fill="#000000" stroke-opacity="0" stroke="#000000" stroke-width="0" stroke-linecap="butt" font-family="&quot;SourceHanSansSC-Bold-2&quot;, &quot;Microsoft YaHei&quot;, &quot;微软雅黑&quot;, STXihei, &quot;华文细黑&quot;" font-weight="normal" text-anchor="start"><tspan x="0" dy="0">设置</tspan></text><path d="M469.23542,46.37163l0.09694,-23.27646h31.33553c8.77227,0 15.90776,7.1386 15.90776,15.90775v7.36872z" fill="#672121" stroke="#672121" stroke-width="12" stroke-linecap="butt"/><g fill="none" stroke="#ffffff" stroke-width="3.5" stroke-linecap="round"><path d="M498.39897,40.22686l-10.9869,-10.98692"/><path d="M498.39897,29.23994l-10.9869,10.98692"/></g><path d="M215.75403,79.36504v15.96532c0,4.42911 -2.8215,8.03468 -6.29022,8.03468h-82.03964c-3.46871,0 -6.29021,-3.60554 -6.29021,-8.03468v-15.9653z" fill-opacity="0.6" fill="#4e4e52" stroke="none" stroke-width="0" stroke-linecap="butt"/><path d="M121.13396,79.36502v-14.65425c0,-4.06542 2.8215,-7.37488 6.29021,-7.37488h82.03964c3.46872,0 6.29022,3.30948 6.29022,7.37488v14.65427z" fill-opacity="0.6" fill="#4e4e52" stroke="none" stroke-width="0" stroke-linecap="butt"/><text transform="translate(143.55319,72.90915) scale(0.35996,0.35996)" font-size="40" xml:space="preserve" fill="#ffffff" stroke="none" stroke-width="1" stroke-linecap="butt" font-family="&quot;SourceHanSansSC-Bold-2&quot;, &quot;Microsoft YaHei&quot;, &quot;微软雅黑&quot;, STXihei, &quot;华文细黑&quot;" font-weight="normal" text-anchor="start"><tspan x="0" dy="0">通用设置</tspan></text><path d="M143.55319,62.05107v13.07753c0,1.15807 -0.9416,2.10007 -2.10048,2.10007h-13.08841c-1.15767,0 -2.10007,-0.942 -2.10007,-2.10007v-13.07794c0,-1.15807 0.9424,-2.10007 2.10007,-2.10007h13.08841c1.15888,0 2.10048,0.9424 2.10048,2.10048z" fill="#45a3ff" stroke="none" stroke-width="1" stroke-linecap="butt"/><path d="M133.12107,67.94655h3.57527" fill="none" stroke="#ffffff" stroke-width="7.5" stroke-linecap="round"/><path d="M130.51882,71.22178l2.51251,-5.2643" fill="none" stroke="#ffffff" stroke-width="5" stroke-linecap="round"/><path d="M136.78604,65.95748l2.51251,5.2643" fill="none" stroke="#ffffff" stroke-width="5" stroke-linecap="round"/><text transform="translate(145.69897,97.50799) scale(0.35217,0.35217)" font-size="40" xml:space="preserve" fill="#ffffff" stroke="none" stroke-width="1" stroke-linecap="butt" font-family="&quot;SourceHanSansSC-Bold-2&quot;, &quot;Microsoft YaHei&quot;, &quot;微软雅黑&quot;, STXihei, &quot;华文细黑&quot;" font-weight="normal" text-anchor="start"><tspan x="0" dy="0">制作人员</tspan></text><path d="M142.96354,86.74339v13.07753c0,1.15807 -0.9416,2.10007 -2.10048,2.10007h-13.08841c-1.15767,0 -2.10007,-0.942 -2.10007,-2.10007v-13.07794c0,-1.15808 0.9424,-2.10007 2.10007,-2.10007h13.08841c1.15888,0 2.10048,0.9424 2.10048,2.10048z" fill="#9ac73a" stroke="none" stroke-width="1" stroke-linecap="butt"/><path d="M132.06903,88.28257c0,-1.24264 1.00736,-2.25 2.25,-2.25c1.24264,0 2.25,1.00736 2.25,2.25c0,1.24264 -1.00736,2.25 -2.25,2.25c-1.24264,0 -2.25,-1.00736 -2.25,-2.25z" fill="#ffffff" stroke="none" stroke-width="0.5" stroke-linecap="butt"/><path d="M129.56903,96.80845c0,-2.62336 2.12665,-4.75 4.75,-4.75c2.62335,0 4.75,2.12664 4.75,4.75c0,2.62336 -2.12665,2.41129 -4.75,2.41129c-2.62335,0 -4.75,0.21206 -4.75,-2.41129z" fill="#ffffff" stroke="none" stroke-width="0.5" stroke-linecap="butt"/></g></g></svg>